<mxfile host="app.diagrams.net" agent="Mozilla/5.0 (Windows NT 10.0; Win64; x64) AppleWebKit/537.36 (KHTML, like Gecko) Chrome/132.0.0.0 Safari/537.36" version="26.0.10">
  <diagram name="Pagina-1" id="w9241RDuE0_oJcqEt80A">
    <mxGraphModel dx="2760" dy="857" grid="1" gridSize="10" guides="1" tooltips="1" connect="1" arrows="1" fold="1" page="1" pageScale="1" pageWidth="1169" pageHeight="827" math="0" shadow="0">
      <root>
        <mxCell id="0" />
        <mxCell id="1" parent="0" />
        <mxCell id="6b-CdjWY54iGNtWTGCSX-15" value="" style="edgeStyle=orthogonalEdgeStyle;rounded=0;orthogonalLoop=1;jettySize=auto;html=1;" edge="1" parent="1" source="6b-CdjWY54iGNtWTGCSX-1" target="6b-CdjWY54iGNtWTGCSX-14">
          <mxGeometry relative="1" as="geometry" />
        </mxCell>
        <mxCell id="6b-CdjWY54iGNtWTGCSX-1" value="&lt;font style=&quot;vertical-align: inherit;&quot;&gt;&lt;font style=&quot;vertical-align: inherit;&quot;&gt;INIZIO&lt;/font&gt;&lt;/font&gt;" style="ellipse;whiteSpace=wrap;html=1;" vertex="1" parent="1">
          <mxGeometry x="490" y="20" width="120" height="80" as="geometry" />
        </mxCell>
        <mxCell id="6b-CdjWY54iGNtWTGCSX-5" value="" style="edgeStyle=orthogonalEdgeStyle;rounded=0;orthogonalLoop=1;jettySize=auto;html=1;" edge="1" parent="1" source="6b-CdjWY54iGNtWTGCSX-2" target="6b-CdjWY54iGNtWTGCSX-4">
          <mxGeometry relative="1" as="geometry" />
        </mxCell>
        <mxCell id="6b-CdjWY54iGNtWTGCSX-2" value="&lt;font style=&quot;vertical-align: inherit;&quot;&gt;&lt;font style=&quot;vertical-align: inherit;&quot;&gt;inserisci n&lt;/font&gt;&lt;/font&gt;" style="shape=parallelogram;perimeter=parallelogramPerimeter;whiteSpace=wrap;html=1;fixedSize=1;" vertex="1" parent="1">
          <mxGeometry x="490" y="340" width="120" height="60" as="geometry" />
        </mxCell>
        <mxCell id="6b-CdjWY54iGNtWTGCSX-7" value="" style="edgeStyle=orthogonalEdgeStyle;rounded=0;orthogonalLoop=1;jettySize=auto;html=1;" edge="1" parent="1" source="6b-CdjWY54iGNtWTGCSX-4" target="6b-CdjWY54iGNtWTGCSX-6">
          <mxGeometry relative="1" as="geometry" />
        </mxCell>
        <mxCell id="6b-CdjWY54iGNtWTGCSX-8" value="FALSE" style="edgeLabel;html=1;align=center;verticalAlign=middle;resizable=0;points=[];" vertex="1" connectable="0" parent="6b-CdjWY54iGNtWTGCSX-7">
          <mxGeometry x="-0.4" y="-1" relative="1" as="geometry">
            <mxPoint as="offset" />
          </mxGeometry>
        </mxCell>
        <mxCell id="6b-CdjWY54iGNtWTGCSX-10" value="" style="edgeStyle=orthogonalEdgeStyle;rounded=0;orthogonalLoop=1;jettySize=auto;html=1;" edge="1" parent="1" source="6b-CdjWY54iGNtWTGCSX-4" target="6b-CdjWY54iGNtWTGCSX-9">
          <mxGeometry relative="1" as="geometry" />
        </mxCell>
        <mxCell id="6b-CdjWY54iGNtWTGCSX-11" value="TRUE" style="edgeLabel;html=1;align=center;verticalAlign=middle;resizable=0;points=[];" vertex="1" connectable="0" parent="6b-CdjWY54iGNtWTGCSX-10">
          <mxGeometry x="-0.075" y="-2" relative="1" as="geometry">
            <mxPoint as="offset" />
          </mxGeometry>
        </mxCell>
        <mxCell id="6b-CdjWY54iGNtWTGCSX-4" value="&lt;font style=&quot;vertical-align: inherit;&quot;&gt;&lt;font style=&quot;vertical-align: inherit;&quot;&gt;N%2==0&lt;/font&gt;&lt;/font&gt;" style="rhombus;whiteSpace=wrap;html=1;" vertex="1" parent="1">
          <mxGeometry x="510" y="470" width="80" height="80" as="geometry" />
        </mxCell>
        <mxCell id="6b-CdjWY54iGNtWTGCSX-6" value="write &quot;error&quot;" style="whiteSpace=wrap;html=1;" vertex="1" parent="1">
          <mxGeometry x="290" y="410" width="120" height="60" as="geometry" />
        </mxCell>
        <mxCell id="6b-CdjWY54iGNtWTGCSX-30" value="" style="edgeStyle=orthogonalEdgeStyle;rounded=0;orthogonalLoop=1;jettySize=auto;html=1;" edge="1" parent="1" source="6b-CdjWY54iGNtWTGCSX-9" target="6b-CdjWY54iGNtWTGCSX-29">
          <mxGeometry relative="1" as="geometry" />
        </mxCell>
        <mxCell id="6b-CdjWY54iGNtWTGCSX-45" style="edgeStyle=orthogonalEdgeStyle;rounded=0;orthogonalLoop=1;jettySize=auto;html=1;entryX=1;entryY=0.5;entryDx=0;entryDy=0;" edge="1" parent="1" source="6b-CdjWY54iGNtWTGCSX-9" target="6b-CdjWY54iGNtWTGCSX-40">
          <mxGeometry relative="1" as="geometry" />
        </mxCell>
        <mxCell id="6b-CdjWY54iGNtWTGCSX-9" value="1&amp;lt;n&amp;lt;100" style="rhombus;whiteSpace=wrap;html=1;" vertex="1" parent="1">
          <mxGeometry x="495" y="610" width="110" height="90" as="geometry" />
        </mxCell>
        <mxCell id="6b-CdjWY54iGNtWTGCSX-27" style="edgeStyle=orthogonalEdgeStyle;rounded=0;orthogonalLoop=1;jettySize=auto;html=1;exitX=0.5;exitY=1;exitDx=0;exitDy=0;entryX=0.5;entryY=0;entryDx=0;entryDy=0;" edge="1" parent="1" source="6b-CdjWY54iGNtWTGCSX-14" target="6b-CdjWY54iGNtWTGCSX-2">
          <mxGeometry relative="1" as="geometry" />
        </mxCell>
        <mxCell id="6b-CdjWY54iGNtWTGCSX-14" value="somma_pari = 0&lt;div&gt;somma_disp= 0&lt;br&gt;&lt;div&gt;i = 1&lt;/div&gt;&lt;/div&gt;&lt;div&gt;k = 2&lt;/div&gt;" style="whiteSpace=wrap;html=1;" vertex="1" parent="1">
          <mxGeometry x="490" y="191" width="120" height="60" as="geometry" />
        </mxCell>
        <mxCell id="6b-CdjWY54iGNtWTGCSX-32" value="" style="edgeStyle=orthogonalEdgeStyle;rounded=0;orthogonalLoop=1;jettySize=auto;html=1;" edge="1" parent="1" source="6b-CdjWY54iGNtWTGCSX-29" target="6b-CdjWY54iGNtWTGCSX-31">
          <mxGeometry relative="1" as="geometry" />
        </mxCell>
        <mxCell id="6b-CdjWY54iGNtWTGCSX-33" value="TRUE" style="edgeLabel;html=1;align=center;verticalAlign=middle;resizable=0;points=[];" vertex="1" connectable="0" parent="6b-CdjWY54iGNtWTGCSX-32">
          <mxGeometry x="-0.1636" relative="1" as="geometry">
            <mxPoint as="offset" />
          </mxGeometry>
        </mxCell>
        <mxCell id="6b-CdjWY54iGNtWTGCSX-37" style="edgeStyle=orthogonalEdgeStyle;rounded=0;orthogonalLoop=1;jettySize=auto;html=1;exitX=0.5;exitY=1;exitDx=0;exitDy=0;entryX=1;entryY=0.5;entryDx=0;entryDy=0;" edge="1" parent="1" source="6b-CdjWY54iGNtWTGCSX-29" target="6b-CdjWY54iGNtWTGCSX-36">
          <mxGeometry relative="1" as="geometry" />
        </mxCell>
        <mxCell id="6b-CdjWY54iGNtWTGCSX-39" value="FALSE" style="edgeLabel;html=1;align=center;verticalAlign=middle;resizable=0;points=[];" vertex="1" connectable="0" parent="6b-CdjWY54iGNtWTGCSX-37">
          <mxGeometry x="-0.9359" relative="1" as="geometry">
            <mxPoint as="offset" />
          </mxGeometry>
        </mxCell>
        <mxCell id="6b-CdjWY54iGNtWTGCSX-29" value="k&amp;lt;=n" style="rhombus;whiteSpace=wrap;html=1;" vertex="1" parent="1">
          <mxGeometry x="700" y="615" width="80" height="80" as="geometry" />
        </mxCell>
        <mxCell id="6b-CdjWY54iGNtWTGCSX-47" style="edgeStyle=orthogonalEdgeStyle;rounded=0;orthogonalLoop=1;jettySize=auto;html=1;exitX=0.5;exitY=1;exitDx=0;exitDy=0;entryX=0.5;entryY=1;entryDx=0;entryDy=0;" edge="1" parent="1" source="6b-CdjWY54iGNtWTGCSX-31" target="6b-CdjWY54iGNtWTGCSX-36">
          <mxGeometry relative="1" as="geometry" />
        </mxCell>
        <mxCell id="6b-CdjWY54iGNtWTGCSX-31" value="somma = somma + k" style="whiteSpace=wrap;html=1;" vertex="1" parent="1">
          <mxGeometry x="890" y="625" width="120" height="60" as="geometry" />
        </mxCell>
        <mxCell id="6b-CdjWY54iGNtWTGCSX-48" style="edgeStyle=orthogonalEdgeStyle;rounded=0;orthogonalLoop=1;jettySize=auto;html=1;exitX=0;exitY=1;exitDx=0;exitDy=0;" edge="1" parent="1" source="6b-CdjWY54iGNtWTGCSX-36" target="6b-CdjWY54iGNtWTGCSX-49">
          <mxGeometry relative="1" as="geometry">
            <mxPoint x="60" y="810" as="targetPoint" />
          </mxGeometry>
        </mxCell>
        <mxCell id="6b-CdjWY54iGNtWTGCSX-36" value="" style="ellipse;whiteSpace=wrap;html=1;aspect=fixed;" vertex="1" parent="1">
          <mxGeometry x="90" y="720" width="40" height="40" as="geometry" />
        </mxCell>
        <mxCell id="6b-CdjWY54iGNtWTGCSX-43" value="" style="edgeStyle=orthogonalEdgeStyle;rounded=0;orthogonalLoop=1;jettySize=auto;html=1;" edge="1" parent="1" source="6b-CdjWY54iGNtWTGCSX-40" target="6b-CdjWY54iGNtWTGCSX-42">
          <mxGeometry relative="1" as="geometry" />
        </mxCell>
        <mxCell id="6b-CdjWY54iGNtWTGCSX-44" value="TRUE" style="edgeLabel;html=1;align=center;verticalAlign=middle;resizable=0;points=[];" vertex="1" connectable="0" parent="6b-CdjWY54iGNtWTGCSX-43">
          <mxGeometry x="-0.14" relative="1" as="geometry">
            <mxPoint as="offset" />
          </mxGeometry>
        </mxCell>
        <mxCell id="6b-CdjWY54iGNtWTGCSX-40" value="i&amp;lt;=n" style="rhombus;whiteSpace=wrap;html=1;" vertex="1" parent="1">
          <mxGeometry x="90" y="470" width="80" height="80" as="geometry" />
        </mxCell>
        <mxCell id="6b-CdjWY54iGNtWTGCSX-46" style="edgeStyle=orthogonalEdgeStyle;rounded=0;orthogonalLoop=1;jettySize=auto;html=1;exitX=0.5;exitY=1;exitDx=0;exitDy=0;entryX=0;entryY=0.5;entryDx=0;entryDy=0;" edge="1" parent="1" source="6b-CdjWY54iGNtWTGCSX-42" target="6b-CdjWY54iGNtWTGCSX-36">
          <mxGeometry relative="1" as="geometry" />
        </mxCell>
        <mxCell id="6b-CdjWY54iGNtWTGCSX-42" value="somma_disp = somma_disp + i" style="whiteSpace=wrap;html=1;" vertex="1" parent="1">
          <mxGeometry x="-130" y="480" width="120" height="60" as="geometry" />
        </mxCell>
        <mxCell id="6b-CdjWY54iGNtWTGCSX-49" value="FINE" style="ellipse;whiteSpace=wrap;html=1;" vertex="1" parent="1">
          <mxGeometry x="30" y="850" width="120" height="80" as="geometry" />
        </mxCell>
      </root>
    </mxGraphModel>
  </diagram>
</mxfile>
